REM DIRINDEX 1\2,1\3,1\4,1\5\6,1\5\7,1\8
REM DIRNAME folder01,folder02,folder03,folder04,folder05,folder06,folder07,folder08
TITLE ""
FILE "040 【040】Unit3 (0445 dubious_0456 esteem).mp3" MP3
  TRACK 01 AUDIO
    TITLE "0:"
    INDEX 01 00:00:00
  TRACK 02 AUDIO
    TITLE "2:cjc115_1564"
    INDEX 01 00:00:01
  TRACK 03 AUDIO
    TITLE "0:"
    INDEX 01 00:01:26
  TRACK 04 AUDIO
    TITLE "3:cjc115_1565"
    INDEX 01 00:01:42
  TRACK 05 AUDIO
    TITLE "0:"
    INDEX 01 00:03:66
  TRACK 06 AUDIO
    TITLE "4:cjc115_1566"
    INDEX 01 00:04:05
  TRACK 07 AUDIO
    TITLE "0:"
    INDEX 01 00:07:64
  TRACK 08 AUDIO
    TITLE "2:cjc115_1567"
    INDEX 01 00:09:04
  TRACK 09 AUDIO
    TITLE "0:"
    INDEX 01 00:10:25
  TRACK 10 AUDIO
    TITLE "3:cjc115_1568"
    INDEX 01 00:10:39
  TRACK 11 AUDIO
    TITLE "0:"
    INDEX 01 00:11:74
  TRACK 12 AUDIO
    TITLE "4:cjc115_1569"
    INDEX 01 00:12:12
  TRACK 13 AUDIO
    TITLE "0:"
    INDEX 01 00:15:58
  TRACK 14 AUDIO
    TITLE "2:cjc115_1570"
    INDEX 01 00:16:73
  TRACK 15 AUDIO
    TITLE "0:"
    INDEX 01 00:18:31
  TRACK 16 AUDIO
    TITLE "3:cjc115_1571"
    INDEX 01 00:18:46
  TRACK 17 AUDIO
    TITLE "0:"
    INDEX 01 00:20:20
  TRACK 18 AUDIO
    TITLE "4:cjc115_1572"
    INDEX 01 00:20:36
  TRACK 19 AUDIO
    TITLE "0:"
    INDEX 01 00:23:61
  TRACK 20 AUDIO
    TITLE "2:cjc115_1573"
    INDEX 01 00:25:01
  TRACK 21 AUDIO
    TITLE "0:"
    INDEX 01 00:26:11
  TRACK 22 AUDIO
    TITLE "3:cjc115_1574"
    INDEX 01 00:26:18
  TRACK 23 AUDIO
    TITLE "0:"
    INDEX 01 00:29:01
  TRACK 24 AUDIO
    TITLE "4:cjc115_1575"
    INDEX 01 00:29:13
  TRACK 25 AUDIO
    TITLE "0:"
    INDEX 01 00:33:40
  TRACK 26 AUDIO
    TITLE "2:cjc115_1576"
    INDEX 01 00:34:55
  TRACK 27 AUDIO
    TITLE "0:"
    INDEX 01 00:35:74
  TRACK 28 AUDIO
    TITLE "3:cjc115_1577"
    INDEX 01 00:36:15
  TRACK 29 AUDIO
    TITLE "0:"
    INDEX 01 00:38:08
  TRACK 30 AUDIO
    TITLE "4:cjc115_1578"
    INDEX 01 00:38:22
  TRACK 31 AUDIO
    TITLE "0:"
    INDEX 01 00:42:68
  TRACK 32 AUDIO
    TITLE "2:cjc115_1579"
    INDEX 01 00:44:07
  TRACK 33 AUDIO
    TITLE "0:"
    INDEX 01 00:45:28
  TRACK 34 AUDIO
    TITLE "3:cjc115_1580"
    INDEX 01 00:45:43
  TRACK 35 AUDIO
    TITLE "0:"
    INDEX 01 00:47:27
  TRACK 36 AUDIO
    TITLE "4:cjc115_1581"
    INDEX 01 00:47:40
  TRACK 37 AUDIO
    TITLE "0:"
    INDEX 01 00:51:71
  TRACK 38 AUDIO
    TITLE "2:cjc115_1582"
    INDEX 01 00:53:11
  TRACK 39 AUDIO
    TITLE "0:"
    INDEX 01 00:54:19
  TRACK 40 AUDIO
    TITLE "3:cjc115_1583"
    INDEX 01 00:54:36
  TRACK 41 AUDIO
    TITLE "0:"
    INDEX 01 00:56:04
  TRACK 42 AUDIO
    TITLE "4:cjc115_1584"
    INDEX 01 00:56:18
  TRACK 43 AUDIO
    TITLE "0:"
    INDEX 01 01:00:04
  TRACK 44 AUDIO
    TITLE "2:cjc115_1585"
    INDEX 01 01:01:21
  TRACK 45 AUDIO
    TITLE "0:"
    INDEX 01 01:02:20
  TRACK 46 AUDIO
    TITLE "3:cjc115_1586"
    INDEX 01 01:02:32
  TRACK 47 AUDIO
    TITLE "0:"
    INDEX 01 01:03:27
  TRACK 48 AUDIO
    TITLE "4:cjc115_1587"
    INDEX 01 01:03:41
  TRACK 49 AUDIO
    TITLE "0:"
    INDEX 01 01:07:63
  TRACK 50 AUDIO
    TITLE "2:cjc115_1588"
    INDEX 01 01:09:03
  TRACK 51 AUDIO
    TITLE "0:"
    INDEX 01 01:10:30
  TRACK 52 AUDIO
    TITLE "3:cjc115_1589"
    INDEX 01 01:10:45
  TRACK 53 AUDIO
    TITLE "0:"
    INDEX 01 01:12:34
  TRACK 54 AUDIO
    TITLE "4:cjc115_1590"
    INDEX 01 01:12:50
  TRACK 55 AUDIO
    TITLE "0:"
    INDEX 01 01:17:41
  TRACK 56 AUDIO
    TITLE "2:cjc115_1591"
    INDEX 01 01:18:58
  TRACK 57 AUDIO
    TITLE "0:"
    INDEX 01 01:20:10
  TRACK 58 AUDIO
    TITLE "3:cjc115_1592"
    INDEX 01 01:20:26
  TRACK 59 AUDIO
    TITLE "0:"
    INDEX 01 01:22:52
  TRACK 60 AUDIO
    TITLE "4:cjc115_1593"
    INDEX 01 01:22:68
  TRACK 61 AUDIO
    TITLE "0:"
    INDEX 01 01:26:70
  TRACK 62 AUDIO
    TITLE "2:cjc115_1594"
    INDEX 01 01:28:10
  TRACK 63 AUDIO
    TITLE "0:"
    INDEX 01 01:29:31
  TRACK 64 AUDIO
    TITLE "3:cjc115_1595"
    INDEX 01 01:29:48
  TRACK 65 AUDIO
    TITLE "0:"
    INDEX 01 01:30:56
  TRACK 66 AUDIO
    TITLE "4:cjc115_1596"
    INDEX 01 01:30:71
  TRACK 67 AUDIO
    TITLE "0:"
    INDEX 01 01:35:27
  TRACK 68 AUDIO
    TITLE "2:cjc115_1597"
    INDEX 01 01:36:43
  TRACK 69 AUDIO
    TITLE "0:"
    INDEX 01 01:37:58
  TRACK 70 AUDIO
    TITLE "3:cjc115_1598"
    INDEX 01 01:37:73
  TRACK 71 AUDIO
    TITLE "0:"
    INDEX 01 01:41:09
  TRACK 72 AUDIO
    TITLE "4:cjc115_1599"
    INDEX 01 01:41:20
  TRACK 73 AUDIO
    TITLE "0:"
    INDEX 01 01:45:71
